<?xml version="1.0" encoding="UTF-8" standalone="no" ?>
<!DOCTYPE svg PUBLIC "-//W3C//DTD SVG 1.1//EN" "http://www.w3.org/Graphics/SVG/1.1/DTD/svg11.dtd">
<svg xmlns="http://www.w3.org/2000/svg" xmlns:xlink="http://www.w3.org/1999/xlink" version="1.1" width="300" height="300" viewBox="0 0 300 300" xml:space="preserve">
<desc>Created with Fabric.js 4.6.0</desc>
<defs>
</defs>
<g transform="matrix(3.06 0 0 3.06 150 150)" id="Fu1_W8Q0CY4JqiuEW_21I"  >
<g style="" vector-effect="non-scaling-stroke"   >
		<g transform="matrix(1 0 0 1 0 0)" id="RW3Sgz75KtISU6kpHqXWi"  >
<path style="stroke: none; stroke-width: 1; stroke-dasharray: none; stroke-linecap: butt; stroke-dashoffset: 0; stroke-linejoin: miter; stroke-miterlimit: 4; fill: rgb(193,62,62); fill-rule: nonzero; opacity: 1;" vector-effect="non-scaling-stroke"  transform=" translate(-30, -30)" d="M 59.909 11.709 C 59.907 11.6 59.894999999999996 11.491 59.865 11.385 L 59.719 11.427 C 59.717 11.424 59.716 11.421 59.713 11.419 L 59.862 11.375 C 58.225 5.361 53.122 0.946 47 0.14 L 47 0 L 31 0 L 31 0 L 30.819 0 L 29.18 0 L 29 0 L 29 0.001 L 14.998 0.001 C 8.069 0.013 1.959 4.689 0.142 11.362 C 0.11 11.473 0.099 11.586 0.097 11.7 C 0.036 11.841 0 11.996 0 12.16 L 0 14 L 0 60 L 39 60 L 56 60 L 60 60 L 60 14 L 60 12.16 C 60 12 59.967 11.848 59.909 11.709 z M 45.93 2.04 C 51.301 2.4210000000000003 55.903999999999996 5.98 57.653999999999996 11 L 45 11 L 44.796 11 C 43.858 7.132 41.405 3.931 38.135 2 L 44.976 2 L 45.93 2.04 z M 43 14 C 43 17.309 40.309 20 37 20 C 33.691 20 31 17.309 31 14 L 31 13 L 43 13 L 43 14 z M 17 13 L 29 13 L 29 14 C 29 17.309 26.309 20 23 20 C 19.691 20 17 17.309 17 14 L 17 13 z M 31 2.001 C 36.511 2.08 41.259 5.776 42.742 11 L 31 11 L 31 2.001 z M 29 11 L 17.258 11 C 18.741 5.776 23.489 2.08 29 2.001 L 29 11 z M 15.023 2 L 21.864 2 C 18.594 3.931 16.141000000000002 7.132 15.203000000000001 11 L 15 11 L 2.348 11 C 4.212 5.666 9.288 2.011 15.023 2 z M 2 13 L 14.802 13 L 15 13 L 15 14 C 15 17.309 12.309000000000001 20 9 20 L 8 20 C 4.691 20 2 17.309 2 14 L 2 13 z M 54 44 L 41 44 L 41 33.5 C 41 29.916 43.916 27 47.5 27 C 51.084 27 54 29.916 54 33.5 L 54 44 z M 41 58 L 41 46 L 54 46 L 54 58 L 41 58 z M 58 19.286 L 58 58 L 56 58 L 56 33.5 C 56 28.813 52.187 25 47.5 25 C 42.813 25 39 28.813 39 33.5 L 39 54 C 38.447 54 38 54.447 38 55 C 38 55.553 38.447 56 39 56 L 39 57 L 38 57 C 37.447 57 37 57.447 37 58 L 36 58 C 36 57.447 35.553 57 35 57 L 34 57 C 33.447 57 33 57.447 33 58 L 32 58 C 32 57.447 31.553 57 31 57 L 30 57 C 29.447 57 29 57.447 29 58 L 28 58 C 28 57.447 27.553 57 27 57 L 26 57 C 25.447 57 25 57.447 25 58 L 24 58 C 24 57.447 23.553 57 23 57 L 22 57 C 21.447 57 21 57.447 21 58 L 20 58 C 20 57.447 19.553 57 19 57 L 18 57 C 17.447 57 17 57.447 17 58 L 16 58 C 16 57.447 15.553 57 15 57 L 14 57 C 13.447 57 13 57.447 13 58 L 12 58 C 12 57.447 11.553 57 11 57 L 10 57 C 9.447 57 9 57.447 9 58 L 8 58 C 8 57.447 7.553 57 7 57 L 6 57 C 5.447 57 5 57.447 5 58 L 4 58 C 4 57.447 3.553 57 3 57 L 2 57 L 2 55 L 2 19.286 C 2.05 19.343 2.108 19.394000000000002 2.16 19.449 C 2.262 19.558000000000003 2.366 19.666 2.474 19.770000000000003 C 2.56 19.853 2.649 19.932000000000002 2.7390000000000003 20.011000000000003 C 2.8510000000000004 20.109 2.9650000000000003 20.204000000000004 3.0820000000000003 20.296000000000003 C 3.176 20.370000000000005 3.2720000000000002 20.441000000000003 3.369 20.511000000000003 C 3.49 20.598000000000003 3.615 20.680000000000003 3.741 20.76 C 3.842 20.824 3.943 20.887 4.047 20.946 C 4.178999999999999 21.021 4.314 21.091 4.449999999999999 21.159000000000002 C 4.555 21.212000000000003 4.659999999999999 21.265000000000004 4.767999999999999 21.313000000000002 C 4.910999999999999 21.376 5.056999999999999 21.432000000000002 5.2029999999999985 21.487000000000002 C 5.310999999999998 21.528000000000002 5.417999999999998 21.57 5.527999999999999 21.606 C 5.684999999999999 21.657 5.844999999999999 21.698 6.004999999999999 21.739 C 6.110999999999999 21.766000000000002 6.214999999999999 21.798000000000002 6.322999999999999 21.821 C 6.503999999999999 21.860000000000003 6.687999999999999 21.886000000000003 6.872999999999998 21.912000000000003 C 6.964999999999998 21.925000000000004 7.054999999999999 21.944000000000003 7.147999999999999 21.954000000000004 C 7.429 21.983 7.712 22 8 22 L 9 22 C 9.338 22 9.669 21.972 9.996 21.931 C 10.09 21.919 10.183 21.903000000000002 10.276 21.888 C 10.523 21.848000000000003 10.765 21.797 11.004 21.735000000000003 C 11.087 21.714000000000002 11.17 21.695000000000004 11.251999999999999 21.671000000000003 C 11.559 21.581000000000003 11.858999999999998 21.476000000000003 12.149999999999999 21.351000000000003 C 12.194999999999999 21.332000000000004 12.235999999999999 21.308000000000003 12.28 21.288000000000004 C 12.527 21.176000000000005 12.767 21.052000000000003 13.001 20.916000000000004 C 13.081999999999999 20.869000000000003 13.16 20.821000000000005 13.238999999999999 20.771000000000004 C 13.450999999999999 20.638000000000005 13.655 20.496000000000006 13.853 20.344000000000005 C 13.908 20.302000000000003 13.966 20.263000000000005 14.02 20.219000000000005 C 14.263 20.023000000000003 14.494 19.813000000000006 14.712 19.590000000000003 C 14.761 19.540000000000003 14.806 19.486000000000004 14.854 19.434000000000005 C 15.023 19.252000000000006 15.183 19.063000000000006 15.334999999999999 18.867000000000004 C 15.392 18.793000000000003 15.447999999999999 18.719000000000005 15.501999999999999 18.643000000000004 C 15.658999999999999 18.424000000000003 15.805 18.198000000000004 15.938999999999998 17.964000000000006 C 15.957999999999998 17.931000000000004 15.981999999999998 17.901000000000007 16.000999999999998 17.868000000000006 C 16.019999999999996 17.901000000000007 16.043999999999997 17.931000000000004 16.063 17.964000000000006 C 16.197 18.198000000000008 16.343999999999998 18.424000000000007 16.5 18.643000000000004 C 16.554 18.719000000000005 16.61 18.793000000000003 16.667 18.867000000000004 C 16.819000000000003 19.064000000000004 16.979000000000003 19.253000000000004 17.148000000000003 19.434000000000005 C 17.196 19.486000000000004 17.240000000000002 19.540000000000006 17.290000000000003 19.590000000000003 C 17.508000000000003 19.813000000000002 17.739000000000004 20.023000000000003 17.982000000000003 20.219000000000005 C 18.036 20.263000000000005 18.094 20.302000000000003 18.149000000000004 20.344000000000005 C 18.347000000000005 20.496000000000006 18.551000000000005 20.638000000000005 18.763000000000005 20.771000000000004 C 18.842000000000006 20.820000000000004 18.920000000000005 20.869000000000003 19.001000000000005 20.916000000000004 C 19.234000000000005 21.051000000000005 19.474000000000004 21.176000000000005 19.722000000000005 21.288000000000004 C 19.766000000000005 21.308000000000003 19.808000000000003 21.332000000000004 19.852000000000004 21.351000000000003 C 20.142000000000003 21.476000000000003 20.443000000000005 21.581000000000003 20.750000000000004 21.671000000000003 C 20.832000000000004 21.695000000000004 20.915000000000003 21.713000000000005 20.998000000000005 21.735000000000003 C 21.237000000000005 21.797000000000004 21.479000000000006 21.848000000000003 21.726000000000006 21.888 C 21.819000000000006 21.903000000000002 21.912000000000006 21.919 22.006000000000007 21.931 C 22.331 21.972 22.662 22 23 22 C 23.338 22 23.669 21.972 23.996 21.931 C 24.09 21.919 24.183 21.903000000000002 24.276 21.888 C 24.523 21.848000000000003 24.765 21.797 25.004 21.735000000000003 C 25.087 21.714000000000002 25.17 21.695000000000004 25.252000000000002 21.671000000000003 C 25.559 21.581000000000003 25.859 21.476000000000003 26.150000000000002 21.351000000000003 C 26.195000000000004 21.332000000000004 26.236 21.308000000000003 26.28 21.288000000000004 C 26.527 21.176000000000005 26.767 21.052000000000003 27.001 20.916000000000004 C 27.082 20.869000000000003 27.16 20.821000000000005 27.239 20.771000000000004 C 27.451 20.638000000000005 27.655 20.496000000000006 27.853 20.344000000000005 C 27.908 20.302000000000003 27.966 20.263000000000005 28.020000000000003 20.219000000000005 C 28.263 20.023000000000003 28.494000000000003 19.813000000000006 28.712000000000003 19.590000000000003 C 28.761000000000003 19.540000000000003 28.806000000000004 19.486000000000004 28.854000000000003 19.434000000000005 C 29.023000000000003 19.252000000000006 29.183000000000003 19.063000000000006 29.335000000000004 18.867000000000004 C 29.392000000000003 18.793000000000003 29.448000000000004 18.719000000000005 29.502000000000006 18.643000000000004 C 29.659000000000006 18.424000000000003 29.805000000000007 18.198000000000004 29.939000000000007 17.964000000000006 C 29.958000000000006 17.931000000000004 29.982000000000006 17.901000000000007 30.00100000000001 17.868000000000006 C 30.020000000000007 17.901000000000007 30.044000000000008 17.931000000000004 30.06300000000001 17.964000000000006 C 30.19700000000001 18.198000000000008 30.34400000000001 18.424000000000007 30.50000000000001 18.643000000000004 C 30.55400000000001 18.719000000000005 30.61000000000001 18.793000000000003 30.667000000000012 18.867000000000004 C 30.819000000000013 19.064000000000004 30.979000000000013 19.253000000000004 31.148000000000014 19.434000000000005 C 31.196000000000012 19.486000000000004 31.240000000000013 19.540000000000006 31.290000000000013 19.590000000000003 C 31.508000000000013 19.813000000000002 31.739000000000015 20.023000000000003 31.982000000000014 20.219000000000005 C 32.036000000000016 20.263000000000005 32.094000000000015 20.302000000000003 32.149000000000015 20.344000000000005 C 32.347000000000016 20.496000000000006 32.551000000000016 20.638000000000005 32.76300000000001 20.771000000000004 C 32.84200000000001 20.820000000000004 32.92000000000001 20.869000000000003 33.00100000000001 20.916000000000004 C 33.23400000000001 21.051000000000005 33.47400000000001 21.176000000000005 33.72200000000001 21.288000000000004 C 33.766000000000005 21.308000000000003 33.80800000000001 21.332000000000004 33.85200000000001 21.351000000000003 C 34.14200000000001 21.476000000000003 34.44300000000001 21.581000000000003 34.750000000000014 21.671000000000003 C 34.832000000000015 21.695000000000004 34.91500000000001 21.713000000000005 34.99800000000001 21.735000000000003 C 35.23700000000001 21.797000000000004 35.47900000000001 21.848000000000003 35.72600000000001 21.888 C 35.81900000000002 21.903000000000002 35.91200000000001 21.919 36.006000000000014 21.931 C 36.331 21.972 36.662 22 37 22 C 37.338 22 37.669 21.972 37.996 21.931 C 38.09 21.919 38.183 21.903000000000002 38.276 21.888 C 38.523 21.848000000000003 38.765 21.797 39.004000000000005 21.735000000000003 C 39.087 21.714000000000002 39.17 21.695000000000004 39.252 21.671000000000003 C 39.559000000000005 21.581000000000003 39.859 21.476000000000003 40.150000000000006 21.351000000000003 C 40.19500000000001 21.332000000000004 40.236000000000004 21.308000000000003 40.28000000000001 21.288000000000004 C 40.52700000000001 21.176000000000005 40.76700000000001 21.052000000000003 41.001000000000005 20.916000000000004 C 41.08200000000001 20.869000000000003 41.160000000000004 20.821000000000005 41.239000000000004 20.771000000000004 C 41.45100000000001 20.638000000000005 41.655 20.496000000000006 41.853 20.344000000000005 C 41.908 20.302000000000003 41.966 20.263000000000005 42.02 20.219000000000005 C 42.263000000000005 20.023000000000003 42.494 19.813000000000006 42.712 19.590000000000003 C 42.761 19.540000000000003 42.806000000000004 19.486000000000004 42.854000000000006 19.434000000000005 C 43.023 19.252000000000006 43.18300000000001 19.063000000000006 43.33500000000001 18.867000000000004 C 43.39200000000001 18.793000000000003 43.44800000000001 18.719000000000005 43.50200000000001 18.643000000000004 C 43.659000000000006 18.424000000000003 43.80500000000001 18.198000000000004 43.93900000000001 17.964000000000006 C 43.958000000000006 17.931000000000004 43.982000000000006 17.901000000000007 44.001000000000005 17.868000000000006 C 44.02 17.901000000000007 44.044000000000004 17.931000000000004 44.063 17.964000000000006 C 44.197 18.198000000000008 44.344 18.424000000000007 44.5 18.643000000000004 C 44.554 18.719000000000005 44.61 18.793000000000003 44.667 18.867000000000004 C 44.819 19.064000000000004 44.979 19.253000000000004 45.148 19.434000000000005 C 45.196000000000005 19.486000000000004 45.24 19.540000000000006 45.290000000000006 19.590000000000003 C 45.50800000000001 19.813000000000002 45.739000000000004 20.023000000000003 45.982000000000006 20.219000000000005 C 46.03600000000001 20.263000000000005 46.09400000000001 20.302000000000003 46.14900000000001 20.344000000000005 C 46.34700000000001 20.496000000000006 46.55100000000001 20.638000000000005 46.763000000000005 20.771000000000004 C 46.842000000000006 20.820000000000004 46.92 20.869000000000003 47.001000000000005 20.916000000000004 C 47.234 21.051000000000005 47.474000000000004 21.176000000000005 47.722 21.288000000000004 C 47.766 21.308000000000003 47.808 21.332000000000004 47.852000000000004 21.351000000000003 C 48.142 21.476000000000003 48.443000000000005 21.581000000000003 48.75000000000001 21.671000000000003 C 48.83200000000001 21.695000000000004 48.915000000000006 21.713000000000005 48.998000000000005 21.735000000000003 C 49.237 21.797000000000004 49.479000000000006 21.848000000000003 49.726000000000006 21.888 C 49.81900000000001 21.903000000000002 49.912000000000006 21.919 50.00600000000001 21.931 C 50.331 21.972 50.662 22 51 22 L 52 22 C 52.288 22 52.571 21.983 52.851 21.953 C 52.944 21.942999999999998 53.034 21.924 53.127 21.910999999999998 C 53.312000000000005 21.884999999999998 53.496 21.857999999999997 53.677 21.819999999999997 C 53.785 21.796999999999997 53.889 21.764999999999997 53.995 21.737999999999996 C 54.154999999999994 21.696999999999996 54.315999999999995 21.655999999999995 54.471999999999994 21.604999999999997 C 54.581999999999994 21.568999999999996 54.68899999999999 21.525999999999996 54.797 21.485999999999997 C 54.943999999999996 21.430999999999997 55.089999999999996 21.374999999999996 55.232 21.311999999999998 C 55.339999999999996 21.264 55.445 21.211 55.55 21.157999999999998 C 55.686 21.089999999999996 55.821 21.020999999999997 55.952999999999996 20.944999999999997 C 56.056999999999995 20.885999999999996 56.157999999999994 20.822999999999997 56.25899999999999 20.758999999999997 C 56.38499999999999 20.679 56.50899999999999 20.596999999999998 56.629999999999995 20.509999999999998 C 56.727999999999994 20.439999999999998 56.824 20.368 56.91799999999999 20.293999999999997 C 57.03499999999999 20.201999999999998 57.14799999999999 20.107999999999997 57.25999999999999 20.009999999999998 C 57.349999999999994 19.930999999999997 57.43899999999999 19.851999999999997 57.52499999999999 19.769 C 57.63299999999999 19.665 57.73599999999999 19.558 57.83899999999999 19.447999999999997 C 57.892 19.394 57.95 19.343 58 19.286 z M 52 20 L 51 20 C 47.691 20 45 17.309 45 14 L 45 13 L 45.198 13 L 58 13 L 58 14 C 58 17.309 55.309 20 52 20 z" stroke-linecap="round" />
</g>
		<g transform="matrix(1 0 0 1 -9.5 9)" id="1ioPCZTGSOZEyaTXqUtlB"  >
<path style="stroke: none; stroke-width: 1; stroke-dasharray: none; stroke-linecap: butt; stroke-dashoffset: 0; stroke-linejoin: miter; stroke-miterlimit: 4; fill: rgb(193,62,62); fill-rule: nonzero; opacity: 1;" vector-effect="non-scaling-stroke"  transform=" translate(-20.5, -39)" d="M 4 53 L 37 53 L 37 25 L 4 25 L 4 53 z M 6 27 L 35 27 L 35 51 L 6 51 L 6 27 z" stroke-linecap="round" />
</g>
		<g transform="matrix(1 0 0 1 -13 5)" id="NsONImQw_QkL8Z3bP8A2N"  >
<path style="stroke: none; stroke-width: 1; stroke-dasharray: none; stroke-linecap: butt; stroke-dashoffset: 0; stroke-linejoin: miter; stroke-miterlimit: 4; fill: rgb(193,62,62); fill-rule: nonzero; opacity: 1;" vector-effect="non-scaling-stroke"  transform=" translate(-17, -35)" d="M 15 38 C 15.256 38 15.512 37.902 15.707 37.707 L 19.707 33.707 C 20.098 33.316 20.098 32.684 19.707 32.293 C 19.316000000000003 31.902 18.684 31.902 18.293 32.293 L 14.293 36.293 C 13.902 36.684 13.902 37.316 14.293 37.707 C 14.488 37.902 14.744 38 15 38 z" stroke-linecap="round" />
</g>
		<g transform="matrix(1 0 0 1 -14 11)" id="RQPfhR19X4bSnhtO_EbP7"  >
<path style="stroke: none; stroke-width: 1; stroke-dasharray: none; stroke-linecap: butt; stroke-dashoffset: 0; stroke-linejoin: miter; stroke-miterlimit: 4; fill: rgb(193,62,62); fill-rule: nonzero; opacity: 1;" vector-effect="non-scaling-stroke"  transform=" translate(-16, -41)" d="M 15 43 C 15.256 43 15.512 42.902 15.707 42.707 L 17.707 40.707 C 18.098 40.316 18.098 39.684 17.707 39.293 C 17.316000000000003 38.902 16.684 38.902 16.293 39.293 L 14.293 41.293 C 13.902 41.684 13.902 42.316 14.293 42.707 C 14.488 42.902 14.744 43 15 43 z" stroke-linecap="round" />
</g>
		<g transform="matrix(1 0 0 1 -11 8.01)" id="j9OhaKed3cxf90VWyiwcq"  >
<path style="stroke: none; stroke-width: 1; stroke-dasharray: none; stroke-linecap: butt; stroke-dashoffset: 0; stroke-linejoin: miter; stroke-miterlimit: 4; fill: rgb(193,62,62); fill-rule: nonzero; opacity: 1;" vector-effect="non-scaling-stroke"  transform=" translate(-19, -38.01)" d="M 18.29 37.29 C 18.109 37.479 18 37.74 18 38 C 18 38.26 18.109 38.52 18.29 38.71 C 18.479 38.89 18.74 39 19 39 C 19.26 39 19.52 38.89 19.71 38.71 C 19.89 38.52 20 38.26 20 38 C 20 37.74 19.89 37.479 19.71 37.29 C 19.34 36.92 18.66 36.92 18.29 37.29 z" stroke-linecap="round" />
</g>
		<g transform="matrix(1 0 0 1 -7.5 4.5)" id="aSRjSpxVNT0JkOKpve5yf"  >
<path style="stroke: none; stroke-width: 1; stroke-dasharray: none; stroke-linecap: butt; stroke-dashoffset: 0; stroke-linejoin: miter; stroke-miterlimit: 4; fill: rgb(193,62,62); fill-rule: nonzero; opacity: 1;" vector-effect="non-scaling-stroke"  transform=" translate(-22.5, -34.5)" d="M 20.293 36.707 C 20.488 36.902 20.744 37 21 37 C 21.256 37 21.512 36.902 21.707 36.707 L 24.707 33.707 C 25.098 33.316 25.098 32.684 24.707 32.293 C 24.316000000000003 31.902 23.684 31.902 23.293 32.293 L 20.293 35.293 C 19.902 35.684 19.902 36.316 20.293 36.707 z" stroke-linecap="round" />
</g>
		<g transform="matrix(1 0 0 1 -10.5 12.5)" id="NTi_QQybmqbMiTR76DLNX"  >
<path style="stroke: none; stroke-width: 1; stroke-dasharray: none; stroke-linecap: butt; stroke-dashoffset: 0; stroke-linejoin: miter; stroke-miterlimit: 4; fill: rgb(193,62,62); fill-rule: nonzero; opacity: 1;" vector-effect="non-scaling-stroke"  transform=" translate(-19.5, -42.5)" d="M 23.293 37.293 L 14.293 46.293 C 13.902 46.684 13.902 47.316 14.293 47.707 C 14.488 47.902 14.744 48 15 48 C 15.256 48 15.512 47.902 15.707 47.707 L 24.707 38.707 C 25.098 38.316 25.098 37.684 24.707 37.293 C 24.316000000000003 36.902 23.684 36.902 23.293 37.293 z" stroke-linecap="round" />
</g>
		<g transform="matrix(1 0 0 1 -4 6.01)" id="BntuxPWIiKnWFIiPd2gb5"  >
<path style="stroke: none; stroke-width: 1; stroke-dasharray: none; stroke-linecap: butt; stroke-dashoffset: 0; stroke-linejoin: miter; stroke-miterlimit: 4; fill: rgb(193,62,62); fill-rule: nonzero; opacity: 1;" vector-effect="non-scaling-stroke"  transform=" translate(-26, -36.01)" d="M 25.29 35.29 C 25.109 35.479 25 35.729 25 36 C 25 36.27 25.109 36.52 25.29 36.71 C 25.479 36.89 25.729 37 26 37 C 26.27 37 26.52 36.89 26.7 36.71 C 26.89 36.52 27 36.26 27 36 C 27 35.729 26.89 35.479 26.71 35.29 C 26.34 34.92 25.66 34.92 25.29 35.29 z" stroke-linecap="round" />
</g>
		<g transform="matrix(1 0 0 1 -22.5 25)" id="hgd4neQU7dom3E3T2z66V"  >
<path style="stroke: none; stroke-width: 1; stroke-dasharray: none; stroke-linecap: butt; stroke-dashoffset: 0; stroke-linejoin: miter; stroke-miterlimit: 4; fill: rgb(193,62,62); fill-rule: nonzero; opacity: 1;" vector-effect="non-scaling-stroke"  transform=" translate(-7.5, -55)" d="M 8 54 L 7 54 C 6.447 54 6 54.447 6 55 C 6 55.553 6.447 56 7 56 L 8 56 C 8.553 56 9 55.553 9 55 C 9 54.447 8.553 54 8 54 z" stroke-linecap="round" />
</g>
		<g transform="matrix(1 0 0 1 -26.5 25)" id="AJe7FkDFmu_7QH5N6Q3_8"  >
<path style="stroke: none; stroke-width: 1; stroke-dasharray: none; stroke-linecap: butt; stroke-dashoffset: 0; stroke-linejoin: miter; stroke-miterlimit: 4; fill: rgb(193,62,62); fill-rule: nonzero; opacity: 1;" vector-effect="non-scaling-stroke"  transform=" translate(-3.5, -55)" d="M 3 56 L 4 56 C 4.553 56 5 55.553 5 55 C 5 54.447 4.553 54 4 54 L 3 54 C 2.447 54 2 54.447 2 55 C 2 55.553 2.447 56 3 56 z" stroke-linecap="round" />
</g>
		<g transform="matrix(1 0 0 1 -14.5 25)" id="mtXCdsx0q9RmpfyS8XiMf"  >
<path style="stroke: none; stroke-width: 1; stroke-dasharray: none; stroke-linecap: butt; stroke-dashoffset: 0; stroke-linejoin: miter; stroke-miterlimit: 4; fill: rgb(193,62,62); fill-rule: nonzero; opacity: 1;" vector-effect="non-scaling-stroke"  transform=" translate(-15.5, -55)" d="M 16 54 L 15 54 C 14.447 54 14 54.447 14 55 C 14 55.553 14.447 56 15 56 L 16 56 C 16.553 56 17 55.553 17 55 C 17 54.447 16.553 54 16 54 z" stroke-linecap="round" />
</g>
		<g transform="matrix(1 0 0 1 -18.5 25)" id="CoZ3-P8jbIk3xOonFy6F3"  >
<path style="stroke: none; stroke-width: 1; stroke-dasharray: none; stroke-linecap: butt; stroke-dashoffset: 0; stroke-linejoin: miter; stroke-miterlimit: 4; fill: rgb(193,62,62); fill-rule: nonzero; opacity: 1;" vector-effect="non-scaling-stroke"  transform=" translate(-11.5, -55)" d="M 12 54 L 11 54 C 10.447 54 10 54.447 10 55 C 10 55.553 10.447 56 11 56 L 12 56 C 12.553 56 13 55.553 13 55 C 13 54.447 12.553 54 12 54 z" stroke-linecap="round" />
</g>
		<g transform="matrix(1 0 0 1 -6.5 25)" id="CEfDTqof6EJVQfXjLtiVj"  >
<path style="stroke: none; stroke-width: 1; stroke-dasharray: none; stroke-linecap: butt; stroke-dashoffset: 0; stroke-linejoin: miter; stroke-miterlimit: 4; fill: rgb(193,62,62); fill-rule: nonzero; opacity: 1;" vector-effect="non-scaling-stroke"  transform=" translate(-23.5, -55)" d="M 24 54 L 23 54 C 22.447 54 22 54.447 22 55 C 22 55.553 22.447 56 23 56 L 24 56 C 24.553 56 25 55.553 25 55 C 25 54.447 24.553 54 24 54 z" stroke-linecap="round" />
</g>
		<g transform="matrix(1 0 0 1 -10.5 25)" id="CGnRIjUlzJuCUpvKw0n67"  >
<path style="stroke: none; stroke-width: 1; stroke-dasharray: none; stroke-linecap: butt; stroke-dashoffset: 0; stroke-linejoin: miter; stroke-miterlimit: 4; fill: rgb(193,62,62); fill-rule: nonzero; opacity: 1;" vector-effect="non-scaling-stroke"  transform=" translate(-19.5, -55)" d="M 20 54 L 19 54 C 18.447 54 18 54.447 18 55 C 18 55.553 18.447 56 19 56 L 20 56 C 20.553 56 21 55.553 21 55 C 21 54.447 20.553 54 20 54 z" stroke-linecap="round" />
</g>
		<g transform="matrix(1 0 0 1 1.5 25)" id="08IzJZrJt1ltUK7-3HMF3"  >
<path style="stroke: none; stroke-width: 1; stroke-dasharray: none; stroke-linecap: butt; stroke-dashoffset: 0; stroke-linejoin: miter; stroke-miterlimit: 4; fill: rgb(193,62,62); fill-rule: nonzero; opacity: 1;" vector-effect="non-scaling-stroke"  transform=" translate(-31.5, -55)" d="M 32 54 L 31 54 C 30.447 54 30 54.447 30 55 C 30 55.553 30.447 56 31 56 L 32 56 C 32.553 56 33 55.553 33 55 C 33 54.447 32.553 54 32 54 z" stroke-linecap="round" />
</g>
		<g transform="matrix(1 0 0 1 -2.5 25)" id="Z6QkgsZl03cuxlwRi7JUI"  >
<path style="stroke: none; stroke-width: 1; stroke-dasharray: none; stroke-linecap: butt; stroke-dashoffset: 0; stroke-linejoin: miter; stroke-miterlimit: 4; fill: rgb(193,62,62); fill-rule: nonzero; opacity: 1;" vector-effect="non-scaling-stroke"  transform=" translate(-27.5, -55)" d="M 28 54 L 27 54 C 26.447 54 26 54.447 26 55 C 26 55.553 26.447 56 27 56 L 28 56 C 28.553 56 29 55.553 29 55 C 29 54.447 28.553 54 28 54 z" stroke-linecap="round" />
</g>
		<g transform="matrix(1 0 0 1 5.5 25)" id="q1v_dH9_CxcC3YhsvzEgU"  >
<path style="stroke: none; stroke-width: 1; stroke-dasharray: none; stroke-linecap: butt; stroke-dashoffset: 0; stroke-linejoin: miter; stroke-miterlimit: 4; fill: rgb(193,62,62); fill-rule: nonzero; opacity: 1;" vector-effect="non-scaling-stroke"  transform=" translate(-35.5, -55)" d="M 36 54 L 35 54 C 34.447 54 34 54.447 34 55 C 34 55.553 34.447 56 35 56 L 36 56 C 36.553 56 37 55.553 37 55 C 37 54.447 36.553 54 36 54 z" stroke-linecap="round" />
</g>
</g>
</g>
</svg>